<?xml version="1.0" standalone="no"?>
<!DOCTYPE svg PUBLIC "-//W3C//DTD SVG 20010904//EN"
 "http://www.w3.org/TR/2001/REC-SVG-20010904/DTD/svg10.dtd">
<svg version="1.0" xmlns="http://www.w3.org/2000/svg"
 width="1600.000000pt" height="1600.000000pt" viewBox="0 0 1600.000000 1600.000000"
 preserveAspectRatio="xMidYMid meet">
<metadata>
Created by potrace 1.14, written by Peter Selinger 2001-2017
</metadata>
<g transform="translate(0.000000,1600.000000) scale(0.100000,-0.100000)"
fill="#000000" stroke="none">
<path d="M812 11759 c-127 -28 -218 -75 -292 -150 -62 -64 -90 -101 -90 -120
0 -9 -6 -22 -14 -28 -7 -6 -17 -26 -21 -44 -4 -17 -9 -34 -10 -37 -9 -26 -25
-93 -29 -125 -14 -95 -16 -113 -22 -170 -3 -33 -7 -116 -9 -183 -2 -68 -5
-126 -8 -128 -2 -2 -60 -5 -128 -7 l-124 -2 0 -245 0 -245 125 -2 c69 -1 130
-2 135 -2 7 -1 10 -283 10 -847 0 -465 3 -850 6 -856 6 -9 99 -17 99 -8 0 7
87 3 99 -5 5 -3 12 -1 16 4 3 6 12 8 20 4 24 -8 135 -9 135 0 0 4 7 4 16 -1 9
-5 31 -6 48 -2 17 4 40 4 51 0 28 -10 55 -1 56 19 0 9 0 36 0 61 -2 48 -2 95
0 177 1 28 -2 56 -6 62 -3 6 -3 11 2 11 9 0 8 123 -1 146 -3 8 -1 14 5 14 6 0
8 4 5 8 -5 9 -7 67 -5 148 1 29 -1 56 -5 62 -3 6 -2 13 3 17 6 3 7 16 3 28 -4
12 -6 38 -5 57 6 73 5 139 -2 149 -3 6 -1 11 5 11 6 0 9 4 6 8 -5 9 -7 67 -5
148 1 29 -1 56 -5 62 -3 6 -2 13 4 17 6 4 8 11 5 16 -9 14 -12 88 -4 101 4 6
3 24 -1 39 -5 16 -5 29 -2 29 9 0 6 75 -3 89 -3 5 -1 12 4 15 4 3 6 20 4 38
-3 18 -4 51 -4 73 1 22 1 55 1 73 -1 37 -24 33 213 33 l137 0 1 62 c0 74 0
407 0 425 -1 10 -24 13 -93 12 -51 -1 -130 -1 -176 -1 l-83 1 4 46 c2 25 0 47
-5 50 -5 3 -5 10 -1 16 3 7 8 46 9 87 5 101 8 118 33 176 24 55 73 96 131 112
28 8 215 10 215 3 0 -1 14 -4 30 -6 39 -5 105 -24 128 -35 21 -11 19 -30 22
246 1 217 -3 270 -21 270 -10 1 -101 17 -124 22 -43 9 -120 15 -255 17 -118 3
-168 0 -233 -15z"/>
<path d="M7572 11743 c-4 -2 -5 -51 -2 -110 6 -137 4 -912 -3 -919 -2 -3 -38
10 -78 29 -73 34 -150 59 -219 71 -19 3 -46 8 -60 11 -34 8 -248 8 -282 1 -16
-3 -38 -8 -50 -10 -49 -10 -65 -15 -132 -40 -93 -35 -157 -71 -245 -134 -86
-63 -199 -175 -238 -235 -15 -23 -30 -44 -33 -47 -7 -7 -27 -43 -74 -135 -43
-82 -100 -242 -110 -306 -3 -20 -8 -42 -11 -50 -3 -8 -7 -45 -10 -84 -2 -38
-5 -72 -5 -75 -7 -22 4 -194 15 -250 6 -29 13 -63 20 -103 11 -58 59 -194 84
-242 95 -176 192 -291 339 -402 96 -73 301 -164 422 -188 8 -2 15 -4 15 -5 0
-6 88 -13 175 -13 156 0 307 47 443 139 l39 25 -2 -33 c-4 -71 -2 -76 36 -80
19 -2 37 -1 39 2 2 4 27 4 55 0 27 -4 50 -3 50 1 0 5 6 6 14 3 21 -8 146 -10
146 -2 0 3 12 3 28 -1 15 -4 41 -5 57 -1 17 4 39 4 50 0 11 -4 28 -4 37 1 10
5 19 5 22 0 3 -5 14 -7 24 -5 16 5 17 21 15 192 -6 537 -12 1515 -13 2210 -1
430 -5 783 -8 783 -15 3 -542 4 -550 2z m-325 -1397 c21 -3 40 -5 43 -6 3 -2
8 -2 13 -1 18 3 177 -56 227 -84 l54 -30 1 -520 c1 -286 -2 -527 -6 -536 -15
-30 -159 -117 -234 -141 -73 -23 -197 -30 -270 -16 -143 28 -279 118 -385 254
-17 22 -64 114 -80 159 -25 67 -38 174 -35 285 3 119 6 145 18 156 4 4 7 15 7
25 0 27 44 121 84 181 49 74 145 169 194 193 23 11 42 23 42 28 0 4 7 7 16 7
8 0 25 6 37 12 65 37 156 48 274 34z"/>
<path d="M10533 11736 c-4 -6 -7 -2986 -4 -3148 l1 -28 138 6 c75 3 200 7 277
8 l140 2 -2 375 c-3 436 1 1201 6 1265 1 13 133 84 155 84 9 0 16 4 16 10 0 5
3 9 8 9 4 -1 9 0 12 1 56 21 213 47 270 44 72 -4 200 -39 200 -55 0 -6 4 -7
10 -4 5 3 36 -20 69 -52 61 -59 112 -148 127 -223 4 -19 8 -350 10 -735 2
-385 3 -704 3 -710 1 -6 98 -10 271 -10 l270 0 1 25 c1 37 8 494 9 640 1 201
-9 843 -15 870 -2 14 -7 41 -11 60 -29 164 -125 343 -245 459 -78 76 -79 76
-162 121 -128 68 -236 92 -422 93 -108 1 -141 -2 -225 -18 -90 -17 -320 -115
-320 -136 0 -4 -7 -6 -16 -5 -19 3 -24 124 -27 693 -1 233 -6 363 -12 364 -52
6 -528 2 -532 -5z"/>
<path d="M9637 11438 c-5 -3 -16 -4 -24 -1 -7 3 -13 3 -13 0 0 -2 -5 -29 -10
-58 -6 -30 -13 -65 -15 -79 -3 -14 -18 -65 -34 -115 -85 -262 -259 -465 -513
-599 l-83 -43 0 -127 -1 -126 31 -1 c16 0 81 0 143 0 109 0 112 0 112 -22 1
-12 2 -267 4 -567 1 -300 6 -556 9 -570 4 -14 8 -41 11 -60 14 -99 20 -131 42
-198 30 -92 98 -185 178 -243 33 -24 62 -44 65 -44 3 0 23 -8 43 -18 83 -39
177 -55 326 -55 78 1 142 5 142 9 0 5 6 6 13 3 16 -6 176 39 233 66 47 22 45
7 45 280 -1 241 -1 240 -9 240 -4 0 -20 -9 -37 -21 -28 -19 -59 -34 -77 -38
-4 -1 -25 -8 -45 -15 -36 -12 -191 -14 -238 -3 -11 3 -23 6 -27 6 -4 1 -23 15
-42 31 -43 38 -66 96 -73 180 -7 90 -9 824 -3 940 l5 95 225 2 c124 1 245 2
271 2 l45 1 -2 253 c-1 283 -1 270 -13 262 -5 -3 -112 -8 -238 -10 -125 -3
-242 -7 -260 -8 l-31 -3 -1 315 c0 174 0 322 -1 328 0 7 -10 13 -22 12 -13 0
-45 1 -71 3 -27 2 -54 0 -60 -4z"/>
<path d="M13778 10855 c-2 -2 -34 -5 -73 -8 -136 -11 -235 -39 -405 -115 -34
-15 -160 -90 -170 -102 -3 -3 -32 -27 -65 -55 -175 -147 -289 -308 -355 -505
-23 -69 -25 -76 -35 -136 -4 -22 -9 -50 -12 -64 -11 -57 -9 -303 3 -376 57
-358 263 -657 569 -825 44 -24 82 -44 85 -44 3 -1 21 -8 40 -17 156 -71 427
-108 612 -83 68 9 121 17 143 22 11 2 34 7 50 10 51 9 237 80 310 119 74 39
241 150 252 166 6 11 -290 304 -338 333 -4 3 -30 -10 -56 -28 -139 -99 -282
-141 -478 -141 -123 0 -242 24 -281 55 -6 5 -13 7 -16 4 -3 -3 -11 1 -18 10
-7 8 -17 15 -22 15 -12 0 -82 55 -122 95 -35 36 -126 175 -126 193 0 6 -3 12
-8 12 -4 0 -12 15 -17 33 l-10 32 867 0 c476 0 869 3 872 6 16 16 25 269 13
364 -11 80 -46 222 -67 270 -25 57 -95 201 -102 210 -4 5 -28 38 -53 72 -49
69 -78 104 -115 140 -29 29 -206 163 -215 163 -3 0 -22 10 -43 23 -75 47 -227
104 -322 122 -14 3 -36 7 -50 10 -14 3 -59 8 -100 11 -41 3 -89 7 -107 8 -18
2 -33 2 -35 1z m117 -500 c40 -7 97 -22 125 -32 8 -3 20 -7 27 -9 57 -11 263
-185 263 -220 0 -8 4 -14 9 -14 5 0 13 -10 17 -22 4 -13 10 -25 13 -28 17 -13
49 -106 40 -115 -11 -11 -590 -11 -929 0 -107 3 -203 6 -212 6 -14 0 -15 5 -7
27 66 173 189 304 347 367 119 48 203 59 307 40z"/>
<path d="M4637 10834 c-1 -1 -22 -5 -47 -8 -315 -42 -667 -263 -834 -523 -97
-152 -154 -320 -172 -513 -8 -80 -5 -274 5 -320 30 -141 106 -346 146 -390 7
-8 14 -19 16 -25 1 -10 49 -81 79 -119 8 -11 47 -52 85 -91 107 -109 234 -192
380 -249 39 -15 79 -31 90 -35 27 -12 104 -33 135 -37 140 -19 282 -23 415
-11 39 3 70 6 70 7 0 2 17 5 60 13 105 19 290 87 377 138 27 16 53 29 58 29 6
0 10 3 10 8 0 4 21 19 48 34 26 15 60 38 77 52 l30 24 -85 86 c-46 47 -86 90
-90 94 -30 39 -183 174 -188 165 -12 -19 -166 -102 -233 -126 -36 -13 -97 -30
-135 -37 -76 -15 -279 -18 -310 -5 -10 4 -24 9 -31 11 -132 27 -269 127 -351
254 -27 42 -82 160 -82 176 0 2 390 3 867 3 500 0 870 4 875 9 5 5 11 43 13
85 2 42 5 80 7 84 11 21 -3 190 -23 282 -5 25 -11 55 -13 66 -8 39 -59 171
-89 230 -63 121 -151 244 -221 308 -47 43 -177 142 -211 160 -179 98 -321 144
-495 163 -53 6 -229 12 -233 8z m143 -488 c36 -2 72 -7 80 -10 8 -3 28 -8 44
-10 35 -6 163 -66 197 -92 36 -28 139 -135 139 -145 0 -4 6 -14 13 -21 19 -19
90 -168 84 -174 -8 -8 -1178 -7 -1185 1 -9 8 57 131 105 197 55 74 155 156
246 200 94 46 171 69 202 61 6 -1 39 -4 75 -7z"/>
<path d="M2256 10823 c-1 -1 -31 -5 -66 -8 -36 -3 -73 -8 -83 -11 -10 -3 -31
-7 -47 -9 -116 -15 -321 -100 -430 -179 -98 -71 -215 -195 -304 -324 -51 -74
-122 -228 -142 -311 -2 -9 -8 -34 -14 -56 -33 -131 -31 -380 4 -540 24 -113
129 -324 220 -444 42 -54 193 -195 252 -234 80 -52 188 -108 249 -127 22 -7
45 -17 51 -22 7 -5 16 -8 20 -7 5 1 11 0 14 -1 8 -3 32 -9 75 -19 22 -5 50
-12 63 -15 112 -26 371 -21 512 10 14 3 36 7 49 10 141 29 400 157 529 261
l24 19 -176 176 -175 175 -63 -44 c-139 -98 -279 -143 -457 -148 -108 -4 -200
16 -302 63 -72 34 -169 108 -196 149 -10 15 -26 36 -35 45 -10 10 -18 25 -18
33 0 8 -4 15 -9 15 -9 0 -35 58 -32 73 0 4 -3 7 -8 7 -5 0 -11 10 -14 23 -2
12 -8 30 -12 39 -6 16 46 17 822 18 455 1 852 1 881 0 43 -1 52 2 53 17 1 10
3 36 5 58 9 76 9 180 2 197 -5 9 -4 20 2 23 6 4 7 11 4 17 -4 5 -8 24 -10 41
-1 18 -6 48 -10 67 -3 19 -7 42 -9 50 -2 20 -25 100 -35 125 -4 11 -18 46 -30
77 -29 74 -112 220 -159 278 -34 42 -132 139 -170 168 -120 91 -227 153 -331
192 -36 13 -66 24 -67 23 -2 -1 -21 4 -43 12 -22 8 -40 12 -40 10 0 -2 -14 0
-31 5 -51 15 -303 33 -313 23z m178 -489 c97 -23 164 -54 236 -107 54 -40 149
-135 150 -149 0 -4 6 -13 14 -21 18 -17 78 -158 71 -165 -4 -4 -463 -14 -600
-13 -240 1 -567 9 -571 14 -3 3 16 47 42 97 136 258 414 403 658 344z"/>
<path d="M8685 8539 c-66 -45 -188 -100 -255 -114 -3 -1 -14 -4 -25 -8 -11 -3
-31 -8 -45 -11 -14 -2 -45 -9 -70 -16 -25 -7 -53 -13 -62 -12 -43 2 -42 43
-42 -1524 0 -821 4 -1497 8 -1501 4 -5 131 -8 282 -8 l274 0 1 30 c0 16 1 393
1 837 l0 807 27 18 c104 69 275 122 416 127 33 2 74 -1 90 -6 17 -4 41 -10 55
-13 48 -9 129 -55 170 -97 23 -24 54 -70 70 -103 55 -116 56 -136 56 -892 l-1
-693 80 0 c44 -1 123 -1 175 0 99 1 248 0 259 -2 3 0 18 0 32 1 l26 1 -4 223
c-2 122 -4 231 -3 242 1 11 1 25 1 30 -1 6 -3 240 -5 520 -4 572 -6 598 -47
725 -18 57 -91 206 -108 220 -3 3 -18 21 -32 40 -25 33 -102 113 -131 135 -11
9 -68 40 -118 66 -39 20 -139 57 -175 65 -142 30 -328 35 -412 10 -10 -3 -36
-7 -57 -11 -99 -14 -240 -70 -322 -126 l-42 -28 -2 192 c-3 262 -6 394 -15
582 -11 253 -12 262 -20 275 -5 8 -4 11 3 7 6 -5 8 0 5 13 -3 11 -6 20 -7 20
0 0 -14 -9 -31 -21z"/>
<path d="M3198 8517 c-15 -12 -36 -30 -47 -39 -12 -10 -26 -18 -31 -18 -6 0
-10 -4 -10 -10 0 -5 -4 -10 -10 -10 -5 0 -32 -14 -60 -31 -28 -17 -56 -32 -63
-33 -6 -1 -17 -5 -23 -8 -30 -19 -184 -68 -233 -74 -13 -2 -26 -5 -29 -8 -6
-7 -5 -2473 2 -2506 21 -98 33 -133 64 -194 42 -80 110 -151 196 -204 34 -20
63 -37 66 -38 3 0 25 -6 50 -13 77 -22 82 -23 195 -26 63 -2 138 2 175 9 76
15 168 44 175 56 3 4 -7 16 -22 25 -78 52 -283 282 -283 319 0 6 -4 16 -9 22
-5 5 -19 40 -30 78 -21 67 -21 89 -27 1055 -3 542 -5 995 -4 1006 1 11 1 25 1
30 0 6 -2 149 -5 318 -2 169 -5 310 -8 312 -2 2 -16 -6 -30 -18z"/>
<path d="M15064 8213 c-71 -313 -153 -476 -329 -647 -50 -50 -185 -146 -203
-146 -6 0 -12 -3 -14 -7 -1 -5 -26 -18 -53 -31 l-50 -23 0 -129 c0 -71 4 -132
8 -136 4 -4 68 -7 142 -7 74 1 135 -2 136 -6 1 -3 2 -267 4 -586 1 -319 5
-589 8 -600 3 -11 13 -56 22 -100 9 -44 19 -87 22 -95 4 -8 7 -20 8 -25 2 -29
75 -136 129 -190 48 -48 78 -69 141 -95 127 -53 186 -63 365 -63 106 1 139 3
210 18 40 8 124 39 131 48 3 5 10 9 15 9 5 0 19 5 32 11 19 9 22 18 23 71 2
76 2 325 0 389 l-1 48 -27 -18 c-69 -47 -168 -76 -263 -76 -125 -2 -197 37
-236 128 -16 36 -18 91 -19 583 0 299 3 545 6 548 8 5 284 16 435 17 l101 1 1
248 0 247 -36 -2 c-20 -2 -47 0 -59 5 -13 4 -25 3 -28 -3 -4 -5 -11 -6 -17 -3
-11 7 -106 9 -113 2 -3 -2 -27 -2 -55 2 -27 4 -50 2 -50 -2 0 -5 -4 -6 -10 -3
-13 8 -118 11 -125 3 -3 -3 -16 -3 -28 -1 l-22 4 0 307 c1 169 -1 313 -3 320
-3 8 -32 12 -98 12 l-94 0 -6 -27z"/>
<path d="M6917 7639 c-111 -18 -256 -75 -354 -140 -26 -16 -34 -18 -38 -7 -6
15 -13 57 -14 78 -1 13 -39 15 -278 15 l-278 0 0 -434 c0 -238 3 -435 7 -437
4 -3 4 -12 1 -22 -4 -9 -6 -32 -5 -52 4 -59 3 -103 -2 -107 -3 -3 -1 -16 4
-29 6 -16 6 -24 -1 -24 -6 0 -6 -7 -2 -17 5 -10 8 -478 8 -1040 l0 -1023 73 0
c92 -1 332 -1 421 0 l68 0 -3 225 c-2 124 -6 229 -9 234 -3 6 -1 13 5 16 8 5
8 11 1 19 -6 7 -8 15 -5 18 3 3 6 123 8 267 2 144 6 264 8 267 3 2 32 -13 64
-35 32 -22 61 -38 63 -36 2 3 13 -1 25 -7 11 -7 24 -13 29 -14 4 -1 8 -2 10
-4 1 -1 9 -3 17 -5 8 -2 40 -10 70 -18 53 -15 282 -17 336 -4 12 3 39 8 60 11
271 43 522 210 670 446 81 129 163 337 179 455 17 120 19 147 18 225 0 145 -7
198 -42 323 -31 110 -125 325 -151 347 -4 3 -22 28 -40 55 -63 93 -166 197
-266 268 -28 20 -56 37 -62 37 -6 0 -12 4 -14 8 -1 4 -32 22 -68 39 -174 82
-381 123 -513 102z m113 -508 c159 -41 271 -119 356 -246 88 -131 118 -232
118 -390 -1 -125 -4 -175 -13 -175 -3 0 -7 -15 -8 -32 -3 -36 -36 -126 -65
-173 -10 -16 -22 -40 -28 -52 -15 -37 -90 -112 -157 -160 -158 -113 -336 -137
-512 -70 -31 12 -58 22 -61 22 -18 4 -80 40 -80 47 0 4 -4 8 -10 8 -5 0 -21
10 -34 21 l-25 22 0 526 0 526 33 23 c52 36 136 74 216 99 61 19 90 22 155 18
44 -2 96 -9 115 -14z"/>
<path d="M11138 7645 c-2 -2 -26 -7 -54 -10 -28 -3 -65 -10 -83 -15 -17 -5
-31 -7 -31 -4 0 3 -8 0 -17 -5 -10 -5 -31 -11 -48 -14 -117 -20 -368 -154
-494 -264 l-44 -39 51 -52 c29 -29 52 -54 52 -56 0 -1 49 -53 110 -115 100
-103 111 -112 126 -97 71 72 257 156 379 172 54 8 186 4 235 -7 76 -16 168
-60 211 -100 68 -64 115 -159 125 -254 l5 -50 -228 -1 c-260 -1 -353 -6 -353
-17 0 -5 -4 -6 -8 -3 -14 8 -198 -42 -281 -76 -124 -51 -203 -98 -269 -160
-53 -50 -102 -106 -102 -117 0 -5 -3 -11 -7 -13 -10 -4 -57 -102 -72 -149 -26
-80 -34 -133 -34 -219 0 -80 6 -136 22 -187 5 -18 8 -33 6 -33 -15 0 86 -171
128 -216 114 -125 257 -198 432 -221 92 -12 312 -5 395 13 14 3 36 8 50 10 77
14 215 74 277 121 l31 24 7 -43 c3 -24 8 -50 11 -58 3 -13 41 -15 271 -15
l268 0 -1 745 c0 410 -3 759 -7 775 -3 17 -9 43 -12 59 -3 16 -10 36 -14 45
-5 9 -9 20 -9 24 1 14 -35 101 -60 147 -96 175 -228 301 -397 379 -91 42 -226
83 -280 85 -11 1 -24 4 -30 7 -11 6 -251 10 -257 4z m517 -1314 c11 -1 11 -69
1 -266 -7 -139 -7 -139 -131 -199 -140 -68 -295 -99 -415 -83 -86 11 -195 92
-226 167 -14 33 -20 107 -12 140 9 34 43 87 73 115 51 47 63 55 79 55 8 0 18
4 21 10 7 11 61 27 120 35 22 3 50 8 63 11 12 2 44 7 70 10 26 3 48 6 49 7 2
3 292 1 308 -2z"/>
<path d="M13308 7625 c-103 -29 -208 -77 -298 -138 l-65 -44 0 69 c0 38 -2 74
-6 79 -6 11 -94 17 -104 8 -2 -3 -27 -3 -55 1 -27 4 -50 2 -50 -2 0 -5 -5 -6
-10 -3 -10 6 -100 9 -125 5 -28 -5 -62 -4 -82 2 -12 4 -25 3 -28 -2 -4 -6 -13
-7 -23 -2 -9 5 -30 6 -47 3 l-30 -6 0 -1110 0 -1109 270 -1 c149 -1 275 0 280
2 7 2 10 280 10 809 l0 805 35 31 c52 44 185 105 269 122 84 17 255 15 290 -3
11 -7 21 -9 21 -6 0 3 21 -6 48 -19 98 -50 185 -161 207 -263 3 -13 8 -33 12
-45 6 -19 12 -582 12 -1138 0 -199 2 -284 6 -289 2 -5 492 -7 530 -2 13 1 14
36 14 711 0 519 -4 754 -14 800 -3 14 -8 39 -11 55 -2 17 -10 48 -16 70 -5 22
-11 45 -12 50 -6 37 -81 199 -119 255 -38 58 -131 149 -188 186 -24 16 -47 33
-51 39 -4 5 -8 6 -8 2 0 -5 -15 0 -33 12 -34 21 -189 69 -247 77 -19 2 -93 6
-165 8 -114 4 -141 2 -217 -19z"/>
<path d="M1230 7632 c-31 -2 -92 -13 -170 -28 -77 -16 -327 -118 -350 -143 -3
-4 -32 -24 -65 -46 -134 -90 -311 -295 -379 -439 -32 -69 -70 -171 -71 -191 0
-5 -3 -14 -7 -20 -3 -5 -9 -30 -14 -55 -9 -51 -11 -59 -14 -62 -8 -11 -14
-266 -7 -303 3 -11 8 -42 12 -70 5 -27 9 -52 10 -55 1 -3 7 -25 14 -50 32
-119 134 -325 196 -397 27 -32 35 -43 35 -47 0 -6 137 -143 171 -171 94 -77
217 -147 329 -185 36 -12 72 -25 80 -28 8 -3 26 -7 40 -9 14 -2 36 -6 50 -10
41 -10 52 -12 125 -19 109 -11 262 -6 356 11 197 36 360 97 509 190 36 22 70
43 75 47 6 5 27 21 47 36 l36 29 -115 119 c-63 65 -139 145 -169 177 -29 31
-59 57 -66 57 -7 -1 -42 -23 -78 -50 -36 -28 -71 -50 -77 -50 -7 0 -13 -5 -13
-11 0 -5 -4 -8 -9 -4 -5 3 -12 1 -16 -5 -10 -16 -156 -57 -235 -65 -78 -8
-196 -9 -208 -1 -4 2 -28 7 -52 11 -42 6 -172 60 -202 83 -93 74 -165 158
-216 252 -57 105 -84 95 256 97 335 2 1034 11 1042 14 3 1 10 0 15 -1 22 -5
205 -3 211 3 3 3 16 2 28 -2 11 -5 30 -5 40 -1 11 3 37 3 59 0 47 -9 52 1 63
117 12 124 9 204 -12 341 -19 122 -116 344 -197 452 -75 100 -298 300 -335
300 -5 0 -12 4 -14 8 -7 17 -214 111 -278 126 -8 2 -33 9 -55 15 -89 23 -283
41 -375 33z m179 -507 c123 -18 251 -81 338 -166 70 -68 81 -83 141 -199 l33
-65 -33 -5 c-51 -9 -1135 -6 -1144 3 -17 17 81 188 152 263 44 46 146 118 184
129 14 4 30 11 35 16 6 4 22 10 35 13 14 3 39 9 55 14 31 9 132 8 204 -3z"/>
<path d="M4547 7633 c-1 0 -27 -3 -57 -6 -30 -3 -56 -6 -57 -7 -4 -3 -12 -5
-63 -14 -96 -18 -310 -108 -361 -152 -8 -8 -19 -14 -23 -14 -10 0 -133 -99
-181 -146 -171 -168 -311 -431 -341 -645 -8 -60 -10 -293 -2 -324 6 -23 20
-112 18 -120 0 -3 7 -19 15 -35 9 -17 13 -30 10 -30 -15 0 109 -281 134 -300
3 -3 12 -17 19 -31 25 -48 196 -234 243 -264 9 -5 41 -27 71 -47 104 -69 279
-144 383 -162 17 -3 41 -8 55 -11 129 -29 447 -22 540 11 8 3 26 8 40 10 131
24 430 179 535 277 9 8 -15 37 -99 122 -113 112 -168 162 -220 203 l-29 22
-19 -20 c-10 -11 -23 -20 -28 -20 -5 0 -15 -6 -22 -12 -32 -31 -186 -99 -255
-113 -139 -28 -275 -27 -380 4 -18 5 -33 8 -33 6 0 -2 -30 11 -67 30 -133 64
-234 161 -293 281 -17 34 -32 68 -34 76 -1 7 -5 19 -9 26 -8 11 19 18 48 12
11 -2 186 -2 198 0 21 4 88 2 93 -3 3 -3 17 -2 30 3 14 6 26 6 29 0 3 -5 15
-6 29 0 12 4 29 4 36 0 8 -5 21 -5 30 0 9 5 22 5 30 0 8 -5 21 -5 31 0 9 5 19
7 22 4 8 -8 77 -11 77 -3 0 4 16 3 34 -1 19 -4 37 -5 40 -2 8 7 85 7 92 -1 3
-3 17 -2 30 3 14 6 26 6 29 0 3 -6 15 -6 30 0 14 5 27 5 30 0 3 -5 18 -5 34 0
15 4 34 4 42 0 7 -5 16 -7 20 -4 7 4 27 4 157 3 34 0 66 3 71 6 5 3 12 1 16
-4 3 -7 15 -7 30 -1 15 6 27 6 30 -1 4 -5 10 -7 15 -4 7 5 26 5 158 4 34 0 66
3 71 6 5 3 12 1 16 -4 3 -7 15 -7 29 -1 13 5 27 6 30 2 6 -6 87 -4 94 3 15 14
23 261 10 339 -4 28 -10 67 -12 86 -3 19 -10 53 -16 75 -6 22 -12 47 -14 55
-20 79 -98 247 -149 319 -55 78 -188 221 -253 271 -54 43 -120 84 -184 116
-46 23 -125 58 -135 60 -5 1 -44 11 -85 22 -111 31 -193 42 -323 45 -43 1 -79
1 -80 0z m145 -493 c225 -40 373 -152 484 -365 l44 -85 -28 0 c-155 -3 -1152
-1 -1153 2 -4 10 25 88 33 88 4 0 7 4 6 8 -4 11 35 82 44 82 5 0 8 6 8 13 0
19 106 127 160 164 132 89 258 118 402 93z"/>
</g>
</svg>
