<?xml version="1.0" encoding="UTF-8"?>
<!DOCTYPE svg PUBLIC "-//W3C//DTD SVG 1.1//EN" "http://www.w3.org/Graphics/SVG/1.1/DTD/svg11.dtd">
<svg xmlns="http://www.w3.org/2000/svg" version="1.1" width="2084px" height="994px" style="shape-rendering:geometricPrecision; text-rendering:geometricPrecision; image-rendering:optimizeQuality; fill-rule:evenodd; clip-rule:evenodd" xmlns:xlink="http://www.w3.org/1999/xlink">
<g><path style="opacity:0.989" fill="#031642" d="M 118.5,7.5 C 142.125,6.32948 165.459,8.32948 188.5,13.5C 188.833,35.8433 188.5,58.1766 187.5,80.5C 172.324,74.842 156.657,73.0087 140.5,75C 127.746,77.4218 119.913,84.9218 117,97.5C 115.591,111.449 115.091,125.449 115.5,139.5C 130.5,139.5 145.5,139.5 160.5,139.5C 160.5,160.5 160.5,181.5 160.5,202.5C 145.5,202.5 130.5,202.5 115.5,202.5C 115.5,276.833 115.5,351.167 115.5,425.5C 91.5,425.5 67.5,425.5 43.5,425.5C 43.5,351.167 43.5,276.833 43.5,202.5C 31.8333,202.5 20.1667,202.5 8.5,202.5C 8.5,181.5 8.5,160.5 8.5,139.5C 19.8333,139.5 31.1667,139.5 42.5,139.5C 41.9817,119.064 43.1483,98.7304 46,78.5C 52.0598,35.9366 76.2264,12.27 118.5,7.5 Z"/></g>
<g><path style="opacity:0.989" fill="#031642" d="M 986.5,12.5 C 1010.83,12.5 1035.17,12.5 1059.5,12.5C 1059.6,149.501 1059.93,286.501 1060.5,423.5C 1035.83,423.5 1011.17,423.5 986.5,423.5C 986.666,419.154 986.499,414.821 986,410.5C 961.89,427.529 935.056,434.029 905.5,430C 854.175,421.346 818.008,393.179 797,345.5C 773.612,284.571 781.945,228.571 822,177.5C 862.586,132.395 911.752,119.228 969.5,138C 974.992,140.579 980.325,143.412 985.5,146.5C 986.5,101.838 986.833,57.1716 986.5,12.5 Z M 923.5,193.5 C 946.55,191.554 967.717,196.887 987,209.5C 987.667,255.167 987.667,300.833 987,346.5C 958.936,370.369 928.436,373.869 895.5,357C 872.839,341.534 860.006,320.034 857,292.5C 852.949,259.308 863.115,231.475 887.5,209C 898.439,201.193 910.439,196.026 923.5,193.5 Z"/></g>
<g><path style="opacity:0.988" fill="#031642" d="M 1370.5,12.5 C 1394.5,12.5 1418.5,12.5 1442.5,12.5C 1442.92,58.8334 1443.42,105.167 1444,151.5C 1466.73,135.645 1492.07,127.978 1520,128.5C 1566.16,128.231 1599.5,148.564 1620,189.5C 1625.62,202.947 1628.96,216.947 1630,231.5C 1630.5,295.166 1630.67,358.832 1630.5,422.5C 1606.5,422.5 1582.5,422.5 1558.5,422.5C 1558.67,362.832 1558.5,303.166 1558,243.5C 1553.79,210.117 1534.95,192.45 1501.5,190.5C 1480.85,191.274 1461.85,197.274 1444.5,208.5C 1443.5,279.83 1443.17,351.164 1443.5,422.5C 1419.49,422.5 1395.49,422.833 1371.5,423.5C 1370.97,286.501 1370.64,149.501 1370.5,12.5 Z"/></g>
<g><path style="opacity:0.985" fill="#031642" d="M 1249.5,52.5 C 1257.83,52.5 1266.17,52.5 1274.5,52.5C 1274.5,80.5 1274.5,108.5 1274.5,136.5C 1298.48,135.55 1322.48,135.217 1346.5,135.5C 1346.5,157.5 1346.5,179.5 1346.5,201.5C 1322.5,201.5 1298.5,201.5 1274.5,201.5C 1274.33,246.501 1274.5,291.501 1275,336.5C 1276.45,356.121 1286.95,365.788 1306.5,365.5C 1321.52,365.707 1335.02,361.373 1347,352.5C 1347.83,374.174 1347.67,395.841 1346.5,417.5C 1319.79,430.673 1291.79,434.173 1262.5,428C 1229.52,420.679 1210.69,400.179 1206,366.5C 1204.44,358.234 1203.44,349.901 1203,341.5C 1202.5,294.835 1202.33,248.168 1202.5,201.5C 1189.83,201.5 1177.17,201.5 1164.5,201.5C 1164.33,190.495 1164.5,179.495 1165,168.5C 1214.37,145.581 1242.54,106.914 1249.5,52.5 Z"/></g>
<g><path style="opacity:0.986" fill="#031642" d="M 1781.5,128.5 C 1832.08,124.301 1875.58,139.635 1912,174.5C 1946.55,212.676 1959.39,257.342 1950.5,308.5C 1874.5,308.167 1798.5,308.5 1722.5,309.5C 1739.2,351.529 1770.2,370.696 1815.5,367C 1837,364.621 1856,356.621 1872.5,343C 1873.17,342.333 1873.83,342.333 1874.5,343C 1889.5,358 1904.5,373 1919.5,388C 1871.34,425.502 1817.34,437.502 1757.5,424C 1700.44,406.276 1664.61,368.443 1650,310.5C 1638.86,240.857 1662.69,187.024 1721.5,149C 1740.2,138.047 1760.2,131.213 1781.5,128.5 Z M 1794.5,190.5 C 1834.82,191.488 1862.15,210.821 1876.5,248.5C 1873.55,249.321 1870.55,249.821 1867.5,250C 1819.16,250.833 1770.83,250.667 1722.5,249.5C 1734.62,215.024 1758.62,195.358 1794.5,190.5 Z"/></g>
<g><path style="opacity:0.987" fill="#031642" d="M 603.5,130.5 C 653.633,127.482 696.466,143.482 732,178.5C 765.305,216.36 777.805,260.36 769.5,310.5C 693.489,310.194 617.489,310.527 541.5,311.5C 551.323,342.487 572.157,361.487 604,368.5C 636.637,373.175 665.971,365.508 692,345.5C 707.64,359.973 722.806,374.973 737.5,390.5C 693.077,425.563 642.743,438.396 586.5,429C 520.429,412.597 480.596,371.097 467,304.5C 459.962,226.38 492.128,171.547 563.5,140C 576.651,135.475 589.985,132.308 603.5,130.5 Z M 606.5,193.5 C 650.475,191.474 680.142,210.974 695.5,252C 643.833,252.667 592.167,252.667 540.5,252C 552.078,220.58 574.078,201.08 606.5,193.5 Z"/></g>
<g><path style="opacity:0.987" fill="#031642" d="M 284.5,131.5 C 338.131,127.313 383.298,144.647 420,183.5C 450.199,220.951 461.365,263.618 453.5,311.5C 377.5,311.5 301.5,311.5 225.5,311.5C 236.271,344.768 258.938,364.268 293.5,370C 324.41,372.902 351.91,364.736 376,345.5C 391.347,360.681 406.514,376.014 421.5,391.5C 379.848,424.252 332.515,437.419 279.5,431C 216.707,419.876 175.207,384.043 155,323.5C 139.47,256.801 158.303,202.301 211.5,160C 233.636,144.681 257.969,135.181 284.5,131.5 Z M 296.5,193.5 C 327.202,193.267 351.368,205.6 369,230.5C 373.302,237.438 376.802,244.771 379.5,252.5C 327.837,253.667 276.17,253.833 224.5,253C 236.971,219.015 260.971,199.181 296.5,193.5 Z"/></g>
<g><path style="opacity:0.987" fill="#031642" d="M 1136.5,424.5 C 1138.49,471.154 1139.66,518.154 1140,565.5C 1155.31,554.101 1172.48,546.935 1191.5,544C 1226.39,537.378 1258.39,544.045 1287.5,564C 1312.24,584.98 1325.74,611.813 1328,644.5C 1328.25,709.505 1328.75,774.505 1329.5,839.5C 1304.83,839.5 1280.17,839.5 1255.5,839.5C 1255.67,778.499 1255.5,717.499 1255,656.5C 1250.38,623.713 1231.55,606.38 1198.5,604.5C 1177.04,605.431 1157.38,611.764 1139.5,623.5C 1139.41,695.818 1139.41,768.151 1139.5,840.5C 1115.17,840.5 1090.83,840.5 1066.5,840.5C 1065.65,710.166 1065.65,579.832 1066.5,449.5C 1081.12,446.762 1095.45,442.929 1109.5,438C 1119.12,434.524 1128.12,430.024 1136.5,424.5 Z"/></g>
<g><path style="opacity:0.986" fill="#031642" d="M 421.5,427.5 C 423.016,539.996 423.849,652.663 424,765.5C 425.418,778.088 429.418,789.755 436,800.5C 440.183,806.862 444.85,812.862 450,818.5C 456.667,824.5 463.333,830.5 470,836.5C 470.456,837.744 469.956,838.577 468.5,839C 444.072,848.201 419.405,848.868 394.5,841C 365.939,828.729 351.106,806.896 350,775.5C 349.5,670.501 349.333,565.501 349.5,460.5C 376.625,455.932 400.625,444.932 421.5,427.5 Z"/></g>
<g><path style="opacity:0.985" fill="#031642" d="M 1962.5,465.5 C 1970.83,465.5 1979.17,465.5 1987.5,465.5C 1987.5,493.167 1987.5,520.833 1987.5,548.5C 2011.5,548.5 2035.5,548.5 2059.5,548.5C 2059.5,570.167 2059.5,591.833 2059.5,613.5C 2035.49,613.287 2011.49,613.62 1987.5,614.5C 1987.33,659.835 1987.5,705.168 1988,750.5C 1989.86,769.528 2000.36,778.861 2019.5,778.5C 2034.32,778.467 2047.66,774.133 2059.5,765.5C 2060.67,786.826 2060.83,808.159 2060,829.5C 2042.86,839.244 2024.36,843.911 2004.5,843.5C 1985.07,843.982 1966.74,839.816 1949.5,831C 1937.66,822.824 1929.16,811.991 1924,798.5C 1919.5,785.196 1916.84,771.529 1916,757.5C 1915.5,709.834 1915.33,662.168 1915.5,614.5C 1902.83,614.5 1890.17,614.5 1877.5,614.5C 1877.5,603.167 1877.5,591.833 1877.5,580.5C 1913.96,565.536 1939.13,539.536 1953,502.5C 1957.5,490.495 1960.67,478.162 1962.5,465.5 Z"/></g>
<g><path style="opacity:0.987" fill="#031642" d="M 1458.5,542.5 C 1491.74,540.805 1521.74,549.639 1548.5,569C 1577.49,595.259 1591.32,628.092 1590,667.5C 1590.5,723.832 1590.67,780.166 1590.5,836.5C 1566.5,836.5 1542.5,836.5 1518.5,836.5C 1518.67,831.821 1518.5,827.155 1518,822.5C 1500.6,834.079 1481.43,840.913 1460.5,843C 1436.83,846.768 1413.83,844.435 1391.5,836C 1359.14,820.085 1342.81,793.918 1342.5,757.5C 1343.22,723.563 1358.22,698.063 1387.5,681C 1411.01,668.872 1436.01,662.205 1462.5,661C 1481.16,660.5 1499.83,660.333 1518.5,660.5C 1515.55,627.053 1497.22,609.219 1463.5,607C 1436.2,605.245 1412.7,613.745 1393,632.5C 1378.47,618.305 1364.3,603.805 1350.5,589C 1380.91,560.629 1416.91,545.129 1458.5,542.5 Z M 1480.5,712.5 C 1493.17,712.5 1505.83,712.5 1518.5,712.5C 1518.67,729.837 1518.5,747.17 1518,764.5C 1499.17,776.775 1478.51,783.442 1456,784.5C 1438.44,784.895 1425.44,777.562 1417,762.5C 1412.7,749.781 1415.2,738.614 1424.5,729C 1432.79,722.523 1442.12,718.189 1452.5,716C 1461.93,714.413 1471.27,713.247 1480.5,712.5 Z"/></g>
<g><path style="opacity:0.989" fill="#031642" d="M 1749.5,542.5 C 1824.24,539.751 1865.74,575.418 1874,649.5C 1874.5,711.832 1874.67,774.166 1874.5,836.5C 1850.5,836.5 1826.5,836.5 1802.5,836.5C 1802.67,777.832 1802.5,719.166 1802,660.5C 1796.45,618.638 1772.62,600.472 1730.5,606C 1713.53,608.651 1698.87,615.817 1686.5,627.5C 1685.5,697.163 1685.17,766.83 1685.5,836.5C 1661.5,836.5 1637.5,836.5 1613.5,836.5C 1613.5,740.833 1613.5,645.167 1613.5,549.5C 1637.5,549.5 1661.5,549.5 1685.5,549.5C 1685.17,556.2 1685.5,562.866 1686.5,569.5C 1705.04,554.727 1726.04,545.727 1749.5,542.5 Z"/></g>
<g><path style="opacity:0.988" fill="#031642" d="M 912.5,543.5 C 963.846,547.087 1003.01,570.753 1030,614.5C 1054.15,658.693 1058.15,704.693 1042,752.5C 1019.19,811.141 976.356,842.141 913.5,845.5C 889.847,845.926 868.514,839.259 849.5,825.5C 848.387,871.166 848.387,916.833 849.5,962.5C 825.167,962.5 800.833,962.5 776.5,962.5C 776.4,825.499 776.066,688.499 775.5,551.5C 799.833,551.5 824.167,551.5 848.5,551.5C 848.174,555.884 848.508,560.217 849.5,564.5C 868.512,551.274 889.512,544.274 912.5,543.5 Z M 894.5,607.5 C 936.325,608.152 963.158,628.486 975,668.5C 982.505,699.638 977.171,728.305 959,754.5C 931.169,784.084 899.002,789.918 862.5,772C 857.714,768.882 853.214,765.382 849,761.5C 848.333,715.833 848.333,670.167 849,624.5C 862.875,615.156 878.042,609.489 894.5,607.5 Z"/></g>
<g><path style="opacity:0.985" fill="#031642" d="M 590.5,544.5 C 653.268,542.464 701.768,567.464 736,619.5C 753.716,652.464 759.55,687.464 753.5,724.5C 677.5,724.822 601.5,725.155 525.5,725.5C 533.289,751.123 549.622,768.957 574.5,779C 611.488,789.502 645.155,783.002 675.5,759.5C 691.47,773.802 706.803,788.802 721.5,804.5C 680.961,837.06 634.628,850.56 582.5,845C 526.733,836.552 486.566,807.052 462,756.5C 439.06,697.818 447.393,644.151 487,595.5C 515.115,565.526 549.615,548.526 590.5,544.5 Z M 592.5,607.5 C 635.274,606.551 664.274,626.051 679.5,666C 628.168,666.5 576.834,666.667 525.5,666.5C 536.332,633.662 558.665,613.996 592.5,607.5 Z"/></g>
<g><path style="opacity:0.986" fill="#031642" d="M 158.5,545.5 C 215.176,542.6 261.343,562.933 297,606.5C 322.05,642.383 330.883,682.049 323.5,725.5C 263.499,725.333 203.499,725.5 143.5,726C 127.49,726.167 111.49,726.667 95.5,727.5C 114.571,772.877 148.571,791.377 197.5,783C 215.129,779.684 230.795,772.35 244.5,761C 245.5,760.333 246.5,760.333 247.5,761C 262.347,775.681 277.014,790.514 291.5,805.5C 257.262,833.639 217.762,847.639 173,847.5C 117.652,845.835 74.3185,822.502 43,777.5C 13.6336,727.071 11.9669,675.738 38,623.5C 65.4454,578.017 105.612,552.017 158.5,545.5 Z M 161.5,608.5 C 204.832,606.819 234.165,626.153 249.5,666.5C 198.171,667.5 146.838,667.833 95.5,667.5C 106.238,635.088 128.238,615.422 161.5,608.5 Z"/></g>
</svg>
