<svg version="1.2" xmlns="http://www.w3.org/2000/svg" viewBox="0 0 100 48" width="100" height="48">
	<title>logo-svg</title>
	<style>
		.s0 { opacity: 1;fill: #031642 } 
	</style>
	<g id="Layer">
		<path id="Layer" fill-rule="evenodd" class="s0" d="m5.7 0.4q1.7-0.1 3.3 0.3 0.1 1.6 0 3.2-1.1-0.4-2.3-0.3-0.9 0.2-1.1 1.1-0.1 1-0.1 2 1.1 0 2.2 0 0 1.6 0 3.1-1.1 0-2.2 0 0 5.4 0 10.7-1.7 0-3.4 0 0-5.3 0-10.7-0.9 0-1.7 0 0-1.5 0-3.1 0.8 0 1.6 0 0-1.4 0.2-2.9 0.4-3.1 3.5-3.4z"/>
	</g>
	<g id="Layer">
		<path id="Layer" fill-rule="evenodd" class="s0" d="m47.3 0.6q1.8 0 3.5 0 0 9.9 0.1 19.9-1.8 0-3.6 0 0-0.4 0-0.7-1.7 1.3-3.8 1-3.7-0.7-5.3-4.1-1.6-4.4 1.2-8.1 3-3.3 7.1-1.9 0.4 0.2 0.8 0.4 0.1-3.3 0-6.5zm-4.7 9.5q-1.8 1.6-1.5 4 0.2 2 1.9 3.1 2.3 1.3 4.4-0.5 0-3.3 0-6.6-1.4-0.9-3.1-0.8-0.9 0.2-1.7 0.8z"/>
	</g>
	<g id="Layer">
		<path id="Layer" fill-rule="evenodd" class="s0" d="m65.8 0.6q1.7 0 3.4 0 0 3.4 0.1 6.7 1.6-1.1 3.6-1.1 3.4 0 4.8 3 0.4 0.9 0.5 2 0.1 4.6 0 9.2-1.7 0-3.4 0 0-4.3 0-8.6-0.3-2.5-2.8-2.6-1.4 0.1-2.7 0.9-0.1 5.1 0 10.3-1.8 0-3.5 0.1 0-10 0-19.9z"/>
	</g>
	<g id="Layer">
		<path id="Layer" fill-rule="evenodd" class="s0" d="m60 2.5q0.6 0 1.2 0 0 2.1 0 4.1 1.7-0.1 3.4-0.1 0 1.6 0 3.2-1.7 0-3.4 0-0.1 3.3 0 6.5 0.1 1.5 1.5 1.4 1.1 0.1 1.9-0.6 0.1 1.6 0 3.2-1.9 0.9-4 0.5-2.4-0.6-2.7-3-0.1-0.6-0.2-1.2 0-3.4 0-6.8-0.9 0-1.8 0 0-0.8 0-1.6 3.6-1.6 4.1-5.6z"/>
	</g>
	<g id="Layer">
		<path id="Layer" fill-rule="evenodd" class="s0" d="m85.5 6.2q3.6-0.3 6.2 2.2 2.5 2.8 1.9 6.5-5.5 0-10.9 0 1.2 3.1 4.4 2.8 1.6-0.1 2.8-1.1 0-0.1 0 0 1.1 1 2.2 2.1-3.5 2.8-7.8 1.8-4.1-1.3-5.1-5.5-0.8-5.1 3.4-7.8 1.4-0.8 2.9-1zm-2.8 5.8q3.4 0.1 6.9 0.1 0.2 0 0.4-0.1-1-2.7-3.9-2.8-2.6 0.4-3.4 2.8z"/>
	</g>
	<g id="Layer">
		<path id="Layer" fill-rule="evenodd" class="s0" d="m29 6.3q3.6-0.2 6.1 2.3 2.4 2.8 1.8 6.4-5.4 0-10.9 0 0.7 2.3 3 2.8 2.3 0.3 4.2-1.1 1.1 1 2.2 2.2-3.2 2.5-7.3 1.8-4.7-1.2-5.7-6-0.5-5.7 4.6-7.9 1-0.4 2-0.5zm-3.1 5.9q3.8 0 7.5 0-1.1-3-4.3-2.9-2.3 0.6-3.2 2.9z"/>
	</g>
	<g id="Layer">
		<path id="Layer" fill-rule="evenodd" class="s0" d="m13.7 6.4q3.8-0.4 6.5 2.5 2.1 2.7 1.6 6.1-5.5 0-11 0 0.8 2.5 3.3 2.9 2.2 0.2 3.9-1.2 1.1 1.1 2.2 2.2-3 2.4-6.8 1.9-4.5-0.8-6-5.2-1.1-4.8 2.7-7.9 1.6-1.1 3.6-1.3zm-2.9 5.8q3.7 0.1 7.4 0-0.2-0.6-0.5-1.1-1.3-1.8-3.5-1.8-2.5 0.5-3.4 2.9z"/>
	</g>
	<g id="Layer">
		<path id="Layer" fill-rule="evenodd" class="s0" d="m54.5 20.5q0.2 3.4 0.2 6.8 1.1-0.8 2.5-1 2.5-0.5 4.6 0.9 1.8 1.6 1.9 3.9 0 4.7 0.1 9.4-1.8 0-3.6 0 0.1-4.4 0-8.8-0.3-2.4-2.7-2.5-1.5 0.1-2.8 0.9 0 5.2 0 10.5-1.8 0-3.5 0-0.1-9.5 0-18.9 1-0.2 2-0.5 0.7-0.3 1.3-0.7z"/>
	</g>
	<g id="Layer">
		<path id="Layer" fill-rule="evenodd" class="s0" d="m20.2 20.6q0.1 8.2 0.1 16.4 0.1 0.9 0.6 1.7 0.3 0.4 0.7 0.8 0.5 0.5 1 0.9 0 0.1-0.1 0.1-1.8 0.7-3.6 0.1-2-0.9-2.1-3.2 0-7.6 0-15.2 1.9-0.3 3.4-1.6z"/>
	</g>
	<g id="Layer">
		<path id="Layer" fill-rule="evenodd" class="s0" d="m94.2 22.5q0.6 0 1.2 0 0 2 0 4 1.7 0 3.4 0 0 1.6 0 3.1-1.7 0-3.4 0.1 0 3.3 0 6.5 0.1 1.4 1.5 1.4 1.1 0 1.9-0.6 0.1 1.5 0 3.1-1.2 0.7-2.6 0.6-1.4 0.1-2.7-0.6-0.8-0.6-1.2-1.5-0.3-1-0.4-2 0-3.5 0-6.9-0.9 0-1.8 0 0-0.8 0-1.7 2.6-1.1 3.6-3.7 0.3-0.9 0.5-1.8z"/>
	</g>
	<g id="Layer">
		<path id="Layer" fill-rule="evenodd" class="s0" d="m70 26.2q2.4-0.1 4.3 1.3 2.1 1.9 2 4.7 0 4.1 0 8.2-1.7 0-3.4 0 0-0.3-0.1-0.7-1.2 0.9-2.7 1-1.7 0.3-3.3-0.3-2.4-1.2-2.4-3.8 0.1-2.5 2.2-3.7 1.7-0.9 3.6-1 1.3 0 2.7 0-0.2-2.4-2.7-2.6-1.9-0.1-3.4 1.2-1-1-2-2.1 2.2-2 5.2-2.2zm-0.3 8.4q-0.7 0.1-1.3 0.6-0.7 0.7-0.4 1.6 0.6 1.1 1.9 1.1 1.6-0.1 2.9-1 0.1-1.2 0.1-2.5-0.9 0-1.9 0-0.6 0.1-1.3 0.2z"/>
	</g>
	<g id="Layer">
		<path id="Layer" fill-rule="evenodd" class="s0" d="m83.9 26.2q5.4-0.2 6 5.2 0.1 4.5 0 9-1.7 0-3.4 0 0-4.3 0-8.5-0.4-3-3.5-2.6-1.2 0.2-2.1 1 0 5 0 10.1-1.7 0-3.5 0 0-6.9 0-13.9 1.8 0 3.5 0 0 0.5 0 1 1.4-1.1 3-1.3z"/>
	</g>
	<g id="Layer">
		<path id="Layer" fill-rule="evenodd" class="s0" d="m43.8 26.2q3.7 0.3 5.6 3.5 1.8 3.2 0.6 6.6-1.6 4.3-6.2 4.5-1.7 0.1-3-0.9-0.1 3.3 0 6.6-1.8 0-3.5 0 0-9.9-0.1-19.9 1.8 0 3.5 0 0 0.3 0.1 0.7 1.3-1 3-1.1zm-3.1 4q0 3.3 0 6.6 0.3 0.3 0.7 0.5 2.6 1.3 4.6-0.9 1.3-1.9 0.8-4.1-0.9-2.9-3.9-3-1.2 0.2-2.2 0.9z"/>
	</g>
	<g id="Layer">
		<path id="Layer" fill-rule="evenodd" class="s0" d="m28.3 26.3q4.6-0.2 7 3.6 1.3 2.4 0.9 5.1-5.5 0-11 0 0.6 1.9 2.4 2.6 2.6 0.8 4.8-0.9 1.2 1 2.2 2.1-2.9 2.4-6.6 2-4.1-0.6-5.8-4.3-1.7-4.2 1.2-7.7 2-2.2 4.9-2.5zm-3.1 5.9q3.7 0 7.4 0-1.1-2.9-4.2-2.9-2.4 0.5-3.2 2.9z"/>
	</g>
	<g id="Layer">
		<path id="Layer" fill-rule="evenodd" class="s0" d="m7.6 26.3q4.1-0.2 6.7 3 1.8 2.6 1.2 5.7-4.3 0-8.6 0.1-1.2 0-2.3 0 1.4 3.3 4.9 2.7 1.2-0.2 2.2-1.1 0.1 0 0.2 0 1 1.1 2.1 2.2-2.5 2-5.7 2-4-0.1-6.2-3.4-2.2-3.6-0.3-7.4 2-3.3 5.8-3.8zm-3 5.9q3.7 0.1 7.4 0-1.1-2.9-4.3-2.8-2.3 0.5-3.1 2.8z"/>
	</g>
</svg>
